<mxfile host="app.diagrams.net" agent="Mozilla/5.0 (Windows NT 10.0; Win64; x64) AppleWebKit/537.36 (KHTML, like Gecko) Chrome/130.0.0.0 Safari/537.36" version="24.8.4">
  <diagram name="Page-1" id="b5b7bab2-c9e2-2cf4-8b2a-24fd1a2a6d21">
    <mxGraphModel dx="908" dy="1707" grid="1" gridSize="10" guides="1" tooltips="1" connect="1" arrows="1" fold="1" page="1" pageScale="1" pageWidth="827" pageHeight="1169" background="none" math="0" shadow="0">
      <root>
        <mxCell id="0" />
        <mxCell id="1" parent="0" />
        <mxCell id="kxm7W-5DDzrMB-vv7P8E-14" value="User" style="shape=umlActor;verticalLabelPosition=bottom;verticalAlign=top;html=1;" parent="1" vertex="1">
          <mxGeometry x="160" y="169" width="30" height="60" as="geometry" />
        </mxCell>
        <mxCell id="6u3klOcjnk4Zt1oIX5Ex-57" style="edgeStyle=orthogonalEdgeStyle;rounded=0;orthogonalLoop=1;jettySize=auto;html=1;exitX=0.5;exitY=1;exitDx=0;exitDy=0;entryX=0.5;entryY=0;entryDx=0;entryDy=0;endArrow=none;endFill=0;" edge="1" parent="1" source="6u3klOcjnk4Zt1oIX5Ex-1" target="6u3klOcjnk4Zt1oIX5Ex-56">
          <mxGeometry relative="1" as="geometry" />
        </mxCell>
        <mxCell id="6u3klOcjnk4Zt1oIX5Ex-1" value="&lt;font style=&quot;font-size: 18px;&quot;&gt;Request Router&lt;/font&gt;" style="html=1;dropTarget=0;whiteSpace=wrap;" vertex="1" parent="1">
          <mxGeometry x="300" y="160" width="180" height="90" as="geometry" />
        </mxCell>
        <mxCell id="6u3klOcjnk4Zt1oIX5Ex-2" value="" style="shape=module;jettyWidth=8;jettyHeight=4;" vertex="1" parent="6u3klOcjnk4Zt1oIX5Ex-1">
          <mxGeometry x="1" width="20" height="20" relative="1" as="geometry">
            <mxPoint x="-27" y="7" as="offset" />
          </mxGeometry>
        </mxCell>
        <mxCell id="6u3klOcjnk4Zt1oIX5Ex-6" value="&lt;font style=&quot;font-size: 18px;&quot;&gt;Authenticator&lt;/font&gt;" style="html=1;dropTarget=0;whiteSpace=wrap;" vertex="1" parent="1">
          <mxGeometry x="580" y="160" width="180" height="90" as="geometry" />
        </mxCell>
        <mxCell id="6u3klOcjnk4Zt1oIX5Ex-7" value="" style="shape=module;jettyWidth=8;jettyHeight=4;" vertex="1" parent="6u3klOcjnk4Zt1oIX5Ex-6">
          <mxGeometry x="1" width="20" height="20" relative="1" as="geometry">
            <mxPoint x="-27" y="7" as="offset" />
          </mxGeometry>
        </mxCell>
        <mxCell id="6u3klOcjnk4Zt1oIX5Ex-58" style="rounded=0;orthogonalLoop=1;jettySize=auto;html=1;exitX=0.5;exitY=1;exitDx=0;exitDy=0;entryX=0.5;entryY=0;entryDx=0;entryDy=0;endArrow=none;endFill=0;" edge="1" parent="1" source="6u3klOcjnk4Zt1oIX5Ex-8" target="6u3klOcjnk4Zt1oIX5Ex-56">
          <mxGeometry relative="1" as="geometry" />
        </mxCell>
        <mxCell id="6u3klOcjnk4Zt1oIX5Ex-60" style="rounded=0;orthogonalLoop=1;jettySize=auto;html=1;exitX=0.5;exitY=1;exitDx=0;exitDy=0;entryX=0.5;entryY=0;entryDx=0;entryDy=0;endArrow=none;endFill=0;" edge="1" parent="1" source="6u3klOcjnk4Zt1oIX5Ex-8" target="6u3klOcjnk4Zt1oIX5Ex-59">
          <mxGeometry relative="1" as="geometry" />
        </mxCell>
        <mxCell id="6u3klOcjnk4Zt1oIX5Ex-8" value="&lt;font style=&quot;font-size: 18px;&quot;&gt;Deployer&lt;/font&gt;" style="html=1;dropTarget=0;whiteSpace=wrap;" vertex="1" parent="1">
          <mxGeometry x="180" y="340" width="180" height="90" as="geometry" />
        </mxCell>
        <mxCell id="6u3klOcjnk4Zt1oIX5Ex-9" value="" style="shape=module;jettyWidth=8;jettyHeight=4;" vertex="1" parent="6u3klOcjnk4Zt1oIX5Ex-8">
          <mxGeometry x="1" width="20" height="20" relative="1" as="geometry">
            <mxPoint x="-27" y="7" as="offset" />
          </mxGeometry>
        </mxCell>
        <mxCell id="6u3klOcjnk4Zt1oIX5Ex-10" value="&lt;font style=&quot;font-size: 18px;&quot;&gt;Logger&lt;/font&gt;" style="html=1;dropTarget=0;whiteSpace=wrap;" vertex="1" parent="1">
          <mxGeometry x="420" y="340" width="180" height="90" as="geometry" />
        </mxCell>
        <mxCell id="6u3klOcjnk4Zt1oIX5Ex-11" value="" style="shape=module;jettyWidth=8;jettyHeight=4;" vertex="1" parent="6u3klOcjnk4Zt1oIX5Ex-10">
          <mxGeometry x="1" width="20" height="20" relative="1" as="geometry">
            <mxPoint x="-27" y="7" as="offset" />
          </mxGeometry>
        </mxCell>
        <mxCell id="6u3klOcjnk4Zt1oIX5Ex-13" value="&lt;font style=&quot;font-size: 18px;&quot;&gt;OpenAPI Generator&lt;/font&gt;" style="html=1;dropTarget=0;whiteSpace=wrap;" vertex="1" parent="1">
          <mxGeometry x="300" y="-10" width="180" height="90" as="geometry" />
        </mxCell>
        <mxCell id="6u3klOcjnk4Zt1oIX5Ex-14" value="" style="shape=module;jettyWidth=8;jettyHeight=4;" vertex="1" parent="6u3klOcjnk4Zt1oIX5Ex-13">
          <mxGeometry x="1" width="20" height="20" relative="1" as="geometry">
            <mxPoint x="-27" y="7" as="offset" />
          </mxGeometry>
        </mxCell>
        <mxCell id="6u3klOcjnk4Zt1oIX5Ex-16" style="edgeStyle=orthogonalEdgeStyle;rounded=0;orthogonalLoop=1;jettySize=auto;html=1;exitX=1;exitY=0.5;exitDx=0;exitDy=0;exitPerimeter=0;entryX=1;entryY=0.5;entryDx=0;entryDy=0;endArrow=none;endFill=0;" edge="1" parent="1" target="6u3klOcjnk4Zt1oIX5Ex-1">
          <mxGeometry relative="1" as="geometry">
            <mxPoint x="490" y="205.00000000000023" as="sourcePoint" />
          </mxGeometry>
        </mxCell>
        <mxCell id="6u3klOcjnk4Zt1oIX5Ex-15" value="" style="shape=providedRequiredInterface;html=1;verticalLabelPosition=bottom;sketch=0;rotation=-180;" vertex="1" parent="1">
          <mxGeometry x="520" y="195" width="20" height="20" as="geometry" />
        </mxCell>
        <mxCell id="6u3klOcjnk4Zt1oIX5Ex-17" style="edgeStyle=orthogonalEdgeStyle;rounded=0;orthogonalLoop=1;jettySize=auto;html=1;exitX=0;exitY=0.5;exitDx=0;exitDy=0;entryX=0;entryY=0.5;entryDx=0;entryDy=0;entryPerimeter=0;endArrow=none;endFill=0;" edge="1" parent="1" source="6u3klOcjnk4Zt1oIX5Ex-6" target="6u3klOcjnk4Zt1oIX5Ex-15">
          <mxGeometry relative="1" as="geometry" />
        </mxCell>
        <mxCell id="6u3klOcjnk4Zt1oIX5Ex-19" value="&lt;span style=&quot;font-family: Arial; font-variant-numeric: normal; font-variant-east-asian: normal; font-variant-alternates: normal; font-variant-position: normal;&quot;&gt;&lt;font style=&quot;font-size: 12px;&quot;&gt;IAuthRequest&lt;/font&gt;&lt;/span&gt;" style="text;html=1;align=center;verticalAlign=middle;whiteSpace=wrap;rounded=0;" vertex="1" parent="1">
          <mxGeometry x="500" y="165" width="60" height="30" as="geometry" />
        </mxCell>
        <mxCell id="6u3klOcjnk4Zt1oIX5Ex-20" style="edgeStyle=orthogonalEdgeStyle;rounded=0;orthogonalLoop=1;jettySize=auto;html=1;entryX=1;entryY=0.5;entryDx=0;entryDy=0;endArrow=none;endFill=0;" edge="1" parent="1" source="6u3klOcjnk4Zt1oIX5Ex-21">
          <mxGeometry relative="1" as="geometry">
            <mxPoint x="200" y="205" as="targetPoint" />
          </mxGeometry>
        </mxCell>
        <mxCell id="6u3klOcjnk4Zt1oIX5Ex-21" value="" style="shape=providedRequiredInterface;html=1;verticalLabelPosition=bottom;sketch=0;rotation=-180;" vertex="1" parent="1">
          <mxGeometry x="240" y="195" width="20" height="20" as="geometry" />
        </mxCell>
        <mxCell id="6u3klOcjnk4Zt1oIX5Ex-22" style="edgeStyle=orthogonalEdgeStyle;rounded=0;orthogonalLoop=1;jettySize=auto;html=1;exitX=0;exitY=0.5;exitDx=0;exitDy=0;entryX=0;entryY=0.5;entryDx=0;entryDy=0;entryPerimeter=0;endArrow=none;endFill=0;" edge="1" parent="1" target="6u3klOcjnk4Zt1oIX5Ex-21">
          <mxGeometry relative="1" as="geometry">
            <mxPoint x="300" y="205" as="sourcePoint" />
          </mxGeometry>
        </mxCell>
        <mxCell id="6u3klOcjnk4Zt1oIX5Ex-23" value="&lt;span style=&quot;font-family: Arial; font-variant-numeric: normal; font-variant-east-asian: normal; font-variant-alternates: normal; font-variant-position: normal;&quot;&gt;&lt;font style=&quot;font-size: 12px;&quot;&gt;IHttpRequest&lt;/font&gt;&lt;/span&gt;" style="text;html=1;align=center;verticalAlign=middle;whiteSpace=wrap;rounded=0;" vertex="1" parent="1">
          <mxGeometry x="220" y="165" width="60" height="30" as="geometry" />
        </mxCell>
        <mxCell id="6u3klOcjnk4Zt1oIX5Ex-26" value="" style="edgeStyle=orthogonalEdgeStyle;rounded=0;orthogonalLoop=1;jettySize=auto;html=1;exitX=1;exitY=0.5;exitDx=0;exitDy=0;exitPerimeter=0;entryX=1;entryY=0.5;entryDx=0;entryDy=0;endArrow=none;endFill=0;" edge="1" parent="1" source="6u3klOcjnk4Zt1oIX5Ex-15">
          <mxGeometry relative="1" as="geometry">
            <mxPoint x="520" y="205" as="sourcePoint" />
            <mxPoint x="490" y="205.00000000000023" as="targetPoint" />
          </mxGeometry>
        </mxCell>
        <mxCell id="6u3klOcjnk4Zt1oIX5Ex-27" value="" style="rounded=0;whiteSpace=wrap;html=1;" vertex="1" parent="1">
          <mxGeometry x="570" y="200" width="20" height="10" as="geometry" />
        </mxCell>
        <mxCell id="6u3klOcjnk4Zt1oIX5Ex-28" value="" style="rounded=0;whiteSpace=wrap;html=1;" vertex="1" parent="1">
          <mxGeometry x="290" y="200" width="20" height="10" as="geometry" />
        </mxCell>
        <mxCell id="6u3klOcjnk4Zt1oIX5Ex-37" style="edgeStyle=orthogonalEdgeStyle;rounded=0;orthogonalLoop=1;jettySize=auto;html=1;exitX=0;exitY=0.5;exitDx=0;exitDy=0;exitPerimeter=0;entryX=0.5;entryY=1;entryDx=0;entryDy=0;endArrow=none;endFill=0;" edge="1" parent="1" source="6u3klOcjnk4Zt1oIX5Ex-36" target="6u3klOcjnk4Zt1oIX5Ex-13">
          <mxGeometry relative="1" as="geometry" />
        </mxCell>
        <mxCell id="6u3klOcjnk4Zt1oIX5Ex-38" style="edgeStyle=orthogonalEdgeStyle;rounded=0;orthogonalLoop=1;jettySize=auto;html=1;exitX=1;exitY=0.5;exitDx=0;exitDy=0;exitPerimeter=0;entryX=0.5;entryY=0;entryDx=0;entryDy=0;endArrow=none;endFill=0;" edge="1" parent="1" source="6u3klOcjnk4Zt1oIX5Ex-36" target="6u3klOcjnk4Zt1oIX5Ex-1">
          <mxGeometry relative="1" as="geometry" />
        </mxCell>
        <mxCell id="6u3klOcjnk4Zt1oIX5Ex-36" value="" style="shape=providedRequiredInterface;html=1;verticalLabelPosition=bottom;sketch=0;rotation=90;" vertex="1" parent="1">
          <mxGeometry x="380" y="110" width="20" height="20" as="geometry" />
        </mxCell>
        <mxCell id="6u3klOcjnk4Zt1oIX5Ex-39" value="IApiSchema" style="text;html=1;align=center;verticalAlign=middle;whiteSpace=wrap;rounded=0;" vertex="1" parent="1">
          <mxGeometry x="410" y="105" width="60" height="30" as="geometry" />
        </mxCell>
        <mxCell id="6u3klOcjnk4Zt1oIX5Ex-43" style="rounded=0;orthogonalLoop=1;jettySize=auto;html=1;exitX=1;exitY=0.5;exitDx=0;exitDy=0;exitPerimeter=0;entryX=0.5;entryY=1;entryDx=0;entryDy=0;strokeColor=default;endArrow=none;endFill=0;" edge="1" parent="1" source="6u3klOcjnk4Zt1oIX5Ex-40" target="6u3klOcjnk4Zt1oIX5Ex-1">
          <mxGeometry relative="1" as="geometry" />
        </mxCell>
        <mxCell id="6u3klOcjnk4Zt1oIX5Ex-44" style="rounded=0;orthogonalLoop=1;jettySize=auto;html=1;exitX=0;exitY=0.5;exitDx=0;exitDy=0;exitPerimeter=0;entryX=0.5;entryY=0;entryDx=0;entryDy=0;endArrow=none;endFill=0;" edge="1" parent="1" source="6u3klOcjnk4Zt1oIX5Ex-40" target="6u3klOcjnk4Zt1oIX5Ex-8">
          <mxGeometry relative="1" as="geometry" />
        </mxCell>
        <mxCell id="6u3klOcjnk4Zt1oIX5Ex-40" value="" style="shape=providedRequiredInterface;html=1;verticalLabelPosition=bottom;sketch=0;rotation=-45;" vertex="1" parent="1">
          <mxGeometry x="310" y="290" width="20" height="20" as="geometry" />
        </mxCell>
        <mxCell id="6u3klOcjnk4Zt1oIX5Ex-53" style="rounded=0;orthogonalLoop=1;jettySize=auto;html=1;exitX=0;exitY=0.5;exitDx=0;exitDy=0;exitPerimeter=0;entryX=0.5;entryY=0;entryDx=0;entryDy=0;endArrow=none;endFill=0;" edge="1" parent="1" source="6u3klOcjnk4Zt1oIX5Ex-51" target="6u3klOcjnk4Zt1oIX5Ex-10">
          <mxGeometry relative="1" as="geometry" />
        </mxCell>
        <mxCell id="6u3klOcjnk4Zt1oIX5Ex-51" value="" style="shape=providedRequiredInterface;html=1;verticalLabelPosition=bottom;sketch=0;rotation=-145;" vertex="1" parent="1">
          <mxGeometry x="450" y="290" width="20" height="20" as="geometry" />
        </mxCell>
        <mxCell id="6u3klOcjnk4Zt1oIX5Ex-52" style="rounded=0;orthogonalLoop=1;jettySize=auto;html=1;exitX=0.5;exitY=1;exitDx=0;exitDy=0;entryX=1;entryY=0.5;entryDx=0;entryDy=0;entryPerimeter=0;endArrow=none;endFill=0;" edge="1" parent="1" source="6u3klOcjnk4Zt1oIX5Ex-1" target="6u3klOcjnk4Zt1oIX5Ex-51">
          <mxGeometry relative="1" as="geometry" />
        </mxCell>
        <mxCell id="6u3klOcjnk4Zt1oIX5Ex-54" value="IDeployModel" style="text;html=1;align=center;verticalAlign=middle;whiteSpace=wrap;rounded=0;" vertex="1" parent="1">
          <mxGeometry x="240" y="285" width="60" height="30" as="geometry" />
        </mxCell>
        <mxCell id="6u3klOcjnk4Zt1oIX5Ex-55" value="ILogFile" style="text;html=1;align=center;verticalAlign=middle;whiteSpace=wrap;rounded=0;" vertex="1" parent="1">
          <mxGeometry x="470" y="285" width="60" height="30" as="geometry" />
        </mxCell>
        <mxCell id="6u3klOcjnk4Zt1oIX5Ex-56" value="&lt;font style=&quot;font-size: 18px;&quot;&gt;Kubernetes&lt;/font&gt;" style="html=1;whiteSpace=wrap;" vertex="1" parent="1">
          <mxGeometry x="300" y="540" width="180" height="90" as="geometry" />
        </mxCell>
        <mxCell id="6u3klOcjnk4Zt1oIX5Ex-59" value="&lt;font style=&quot;font-size: 18px;&quot;&gt;Repository&lt;/font&gt;" style="html=1;whiteSpace=wrap;" vertex="1" parent="1">
          <mxGeometry x="80" y="540" width="180" height="90" as="geometry" />
        </mxCell>
      </root>
    </mxGraphModel>
  </diagram>
</mxfile>
